<svg t="1717123996578" class="icon" viewBox="0 0 1024 1024" version="1.1" xmlns="http://www.w3.org/2000/svg" p-id="7369" width="128" height="128"><path d="M851.626667 989.866667H172.373333C96.426667 989.866667 34.133333 927.573333 34.133333 851.626667V601.6c0-25.6 20.48-46.08 46.08-46.08 23.893333 0 43.52-19.626667 43.52-43.52s-19.626667-43.52-43.52-43.52c-25.6 0-46.08-20.48-46.08-46.08V172.373333C34.133333 96.426667 96.426667 34.133333 172.373333 34.133333h679.253334c75.946667 0 138.24 62.293333 138.24 138.24v249.173334c0 25.6-20.48 46.08-46.08 46.08h-0.853334c-23.893333 0-43.52 19.626667-43.52 43.52s19.626667 43.52 43.52 43.52h0.853334c25.6 0 46.08 20.48 46.08 46.08v249.173333c0 77.653333-62.293333 139.946667-138.24 139.946667z m-725.333334-349.866667v211.626667c0 25.6 20.48 46.08 46.08 46.08h679.253334c25.6 0 46.08-20.48 46.08-46.08V640c-52.906667-18.773333-91.306667-69.12-91.306667-128s38.4-110.08 91.306667-128.853333V172.373333c0-25.6-20.48-46.08-46.08-46.08H172.373333c-25.6 0-46.08 20.48-46.08 46.08V384c52.053333 18.773333 89.6 69.12 89.6 128 0.853333 58.88-36.693333 109.226667-89.6 128z" p-id="7370" data-spm-anchor-id="a313x.search_index.0.i7.2e293a81UpLUxZ" class="selected" fill="#707070"></path><path d="M512 589.653333c-101.546667 0-183.466667-81.92-183.466667-183.466666S410.453333 222.72 512 222.72s183.466667 81.92 183.466667 183.466667S613.546667 589.653333 512 589.653333zM512 315.733333c-50.346667 0-91.306667 40.96-91.306667 91.306667S461.653333 497.493333 512 497.493333c50.346667 0 91.306667-40.96 91.306667-91.306666S562.346667 315.733333 512 315.733333z" p-id="7371" data-spm-anchor-id="a313x.search_index.0.i8.2e293a81UpLUxZ" class="selected" fill="#707070"></path><path d="M722.773333 801.28c-25.6 0-46.08-20.48-46.08-46.08 0-90.453333-74.24-164.693333-164.693333-164.693333s-164.693333 74.24-164.693333 164.693333c0 25.6-20.48 46.08-46.08 46.08s-46.08-20.48-46.08-46.08c0-141.653333 115.2-256.853333 256.853333-256.853333s256.853333 115.2 256.853333 256.853333c0 24.746667-20.48 46.08-46.08 46.08z" p-id="7372" data-spm-anchor-id="a313x.search_index.0.i9.2e293a81UpLUxZ" class="selected" fill="#707070"></path></svg>